<svg width="31" height="30" viewBox="0 0 31 30" fill="none" xmlns="http://www.w3.org/2000/svg">
<path d="M15.8755 30C13.332 30 10.9928 29.4205 8.85809 28.2614C6.72334 27.1023 4.97466 25.5568 3.61206 23.625V27.2727H0.886841V19.0909H9.06248V21.8182H5.69003C6.78012 23.4545 8.21676 24.7727 9.99996 25.7727C11.7822 26.7727 13.7408 27.2727 15.8755 27.2727C17.5788 27.2727 19.1744 26.9491 20.6624 26.3018C22.1494 25.6536 23.4439 24.7782 24.5458 23.6755C25.6468 22.5736 26.5211 21.2782 27.1688 19.7891C27.8156 18.3009 28.139 16.7045 28.139 15H30.8642C30.8642 17.0682 30.4727 19.0114 29.6896 20.8295C28.9057 22.6477 27.8324 24.2386 26.4698 25.6023C25.1072 26.9659 23.5175 28.0395 21.7007 28.8232C19.8839 29.6077 17.9421 30 15.8755 30ZM14.6492 24.5455V22.7727C13.5818 22.5227 12.7134 22.0627 12.0439 21.3927C11.3735 20.7218 10.8793 19.8409 10.5614 18.75L12.8097 17.8636C13.0822 18.7955 13.5082 19.4941 14.0878 19.9595C14.6664 20.4259 15.3305 20.6591 16.0799 20.6591C16.8293 20.6591 17.4707 20.4827 18.0039 20.13C18.5381 19.7782 18.8051 19.2273 18.8051 18.4773C18.8051 17.8182 18.5272 17.2841 17.9712 16.875C17.4144 16.4659 16.4206 16 14.9898 15.4773C13.6499 15 12.6679 14.4318 12.0439 13.7727C11.4189 13.1136 11.1064 12.25 11.1064 11.1818C11.1064 10.25 11.4302 9.40318 12.0779 8.64136C12.7247 7.88045 13.6045 7.38636 14.7173 7.15909V5.45455H17.1019V7.15909C17.9194 7.22727 18.6634 7.55682 19.3338 8.14773C20.0033 8.73864 20.463 9.43182 20.7128 10.2273L18.5326 11.1136C18.3509 10.5909 18.0557 10.1536 17.6469 9.80182C17.2381 9.44909 16.6704 9.27273 15.9437 9.27273C15.1488 9.27273 14.5415 9.44318 14.1218 9.78409C13.7013 10.125 13.491 10.5909 13.491 11.1818C13.491 11.7727 13.7521 12.2386 14.2745 12.5795C14.7968 12.9205 15.7393 13.3182 17.1019 13.7727C18.737 14.3636 19.8271 15.0568 20.3721 15.8523C20.9172 16.6477 21.1897 17.5227 21.1897 18.4773C21.1897 19.1364 21.0761 19.7159 20.849 20.2159C20.6219 20.7159 20.3213 21.1418 19.947 21.4936C19.5718 21.8464 19.1344 22.1305 18.6348 22.3459C18.1352 22.5623 17.6015 22.7273 17.0337 22.8409V24.5455H14.6492ZM0.886841 15C0.886841 12.9318 1.27882 10.9886 2.06277 9.17045C2.84582 7.35227 3.91864 5.76136 5.28125 4.39773C6.64386 3.03409 8.23356 1.96 10.0504 1.17545C11.8672 0.391818 13.8089 0 15.8755 0C18.4191 0 20.7582 0.579546 22.8929 1.73864C25.0277 2.89773 26.7764 4.44318 28.139 6.375V2.72727H30.8642V10.9091H22.6886V8.18182H26.061C24.9709 6.54545 23.5343 5.22727 21.7511 4.22727C19.9688 3.22727 18.0103 2.72727 15.8755 2.72727C14.1723 2.72727 12.5771 3.05091 11.09 3.69818C9.60208 4.34636 8.3076 5.22136 7.20661 6.32318C6.10472 7.42591 5.22992 8.72136 4.58223 10.2095C3.93545 11.6986 3.61206 13.2955 3.61206 15H0.886841Z" fill="#0068FF"/>
</svg>
