<svg width="33" height="28" viewBox="0 0 33 28" fill="none" xmlns="http://www.w3.org/2000/svg">
<path d="M31.1385 8.86379L4.0994 0.57052C3.73343 0.463779 3.34764 0.44365 2.97255 0.511728C2.59746 0.579805 2.24335 0.73422 1.93824 0.962761C1.63312 1.1913 1.38536 1.4877 1.21455 1.82851C1.04375 2.16932 0.954578 2.5452 0.954102 2.92642V25.0418C0.954102 25.6935 1.21299 26.3185 1.67382 26.7794C2.13464 27.2402 2.75966 27.4991 3.41137 27.4991C3.64634 27.4992 3.88011 27.4655 4.10554 27.3993L15.4185 23.9273C16.168 23.6973 16.9263 24.2578 16.9263 25.0418C16.9263 25.6935 17.1852 26.3185 17.646 26.7794C18.1069 27.2402 18.7319 27.4991 19.3836 27.4991H24.2981C24.9498 27.4991 25.5748 27.2402 26.0357 26.7794C26.4965 26.3185 26.7554 25.6935 26.7554 25.0418V24.1466C26.7554 21.9497 28.1894 20.0101 30.2898 19.3662L31.1385 19.106C31.6458 18.9536 32.0907 18.6422 32.4076 18.2177C32.7245 17.7933 32.8966 17.2782 32.8985 16.7485V11.2197C32.8963 10.6903 32.724 10.1756 32.4071 9.75143C32.0903 9.32729 31.6456 9.01613 31.1385 8.86379ZM16.9263 17.1992C16.9263 19.3957 15.4928 21.335 13.3929 21.9793L9.87798 23.0577C6.66352 24.044 3.41137 21.64 3.41137 18.2777V9.69056C3.41137 6.3282 6.66352 3.92424 9.87798 4.9105L13.3929 5.98895C15.4928 6.63323 16.9263 8.57252 16.9263 10.769V17.1992ZM24.2981 23.41C24.2981 24.3112 23.5675 25.0418 22.6663 25.0418H20.7241C19.9837 25.0418 19.3836 24.4416 19.3836 23.7013C19.3836 23.1125 19.7679 22.5926 20.3308 22.4198L22.1876 21.85C23.2367 21.5281 24.2981 22.3126 24.2981 23.41ZM30.4413 16.7363C30.4413 16.743 30.4358 16.7485 30.429 16.7485H30.4266C30.4251 16.7485 30.4237 16.7488 30.4223 16.7492L25.2709 18.3314C22.3448 19.2301 19.3836 17.0419 19.3836 13.9808C19.3836 10.9217 22.3413 8.73379 25.2665 9.62896L30.4223 11.2068C30.4237 11.2072 30.4251 11.2074 30.4266 11.2074C30.4347 11.2074 30.4413 11.214 30.4413 11.2221V16.7363Z" fill="#0068FF"/>
</svg>
