<svg width="25" height="32" viewBox="0 0 25 32" fill="none" xmlns="http://www.w3.org/2000/svg">
<path d="M25 6.07486L13.6525 16.0353V28.9429L19.9673 31.9992H5.16779L11.4837 28.944V16.0353L0 6.07486H17.5164L21.0225 0L21.9653 0.543807L18.7727 6.07378L25 6.07486ZM22.3502 7.09544L18.1738 7.11166L16.8872 9.34094H19.8549L22.3502 7.09544ZM13.6525 13.6946C14.2914 13.6946 14.8082 13.1768 14.8082 12.5378C14.8082 11.8989 14.2903 11.381 13.6525 11.381C13.0146 11.381 12.4957 11.8989 12.4957 12.5378C12.4957 13.1779 13.0146 13.6946 13.6525 13.6946ZM2.65093 7.09544L5.16671 9.34094H15.6309L16.9153 7.11706L2.65093 7.09544Z" fill="#0D6EFD"/>
</svg>
