<svg width="33" height="33" viewBox="0 0 33 33" fill="none" xmlns="http://www.w3.org/2000/svg">
<path d="M14.9779 16.6892C16.5436 18.255 19.0822 18.255 20.648 16.6892L25.719 11.6182C26.3397 10.9975 26.3485 9.99384 25.7388 9.36232C25.1137 8.71493 24.0793 8.70586 23.443 9.34218L19.5101 13.275C18.5696 14.2156 17.0475 14.2245 16.0959 13.2951L15.5034 12.7164C14.8802 12.1077 13.8834 12.1136 13.2674 12.7295C12.6463 13.3506 12.6463 14.3577 13.2674 14.9788L14.9779 16.6892ZM12.1115 25.8333C9.35012 25.8333 7.11155 23.5947 7.11155 20.8333V5.27777C7.11155 2.51635 9.35012 0.277771 12.1115 0.277771H27.6671C30.4285 0.277771 32.6671 2.51635 32.6671 5.27777V20.8333C32.6671 23.5947 30.4285 25.8333 27.6671 25.8333H12.1115ZM10.306 17.6389C10.306 20.4003 12.5446 22.6389 15.306 22.6389H24.4727C27.2341 22.6389 29.4727 20.4003 29.4727 17.6389V8.47221C29.4727 5.71079 27.2341 3.47222 24.4727 3.47222H15.306C12.5446 3.47222 10.306 5.71079 10.306 8.47222V17.6389ZM5.72266 32.2222C2.96124 32.2222 0.722656 29.9836 0.722656 27.2222V8.26388C0.722656 7.38176 1.43776 6.66666 2.31988 6.66666C3.202 6.66666 3.9171 7.38176 3.9171 8.26388V24.0278C3.9171 26.7892 6.15568 29.0278 8.9171 29.0278H24.681C25.5631 29.0278 26.2782 29.7429 26.2782 30.625C26.2782 31.5071 25.5631 32.2222 24.681 32.2222H5.72266Z" fill="#0D6EFD"/>
</svg>
