<svg width="31" height="29" viewBox="0 0 31 29" fill="none" xmlns="http://www.w3.org/2000/svg">
<path d="M25.8004 18.4481C24.7821 18.4476 23.7925 18.7863 22.9878 19.4109L19.6595 16.8166C19.9108 16.2402 20.0403 15.618 20.0398 14.9891C20.0398 14.8824 20.0398 14.7758 20.0282 14.6706L21.9336 14.035C22.5364 14.9654 23.4539 15.6473 24.5182 15.9558C25.5825 16.2643 26.7222 16.1788 27.7286 15.7149C28.7349 15.2509 29.5406 14.4397 29.998 13.4297C30.4554 12.4198 30.5339 11.2787 30.2191 10.2156C29.9043 9.1524 29.2173 8.23833 28.2839 7.64079C27.3506 7.04324 26.2333 6.80223 25.1369 6.96189C24.0404 7.12156 23.0381 7.67121 22.3136 8.51017C21.5891 9.34912 21.1909 10.4212 21.1919 11.5301C21.1919 11.6367 21.1919 11.7434 21.2034 11.8486L19.2981 12.4842C18.8804 11.838 18.3077 11.3066 17.6323 10.9386C16.9569 10.5706 16.2002 10.3775 15.4312 10.3771C15.1769 10.3776 14.9231 10.3988 14.6722 10.4405L13.6872 8.21517C14.5377 7.53502 15.1202 6.57547 15.3314 5.50658C15.5426 4.43769 15.3688 3.32849 14.8408 2.37558C14.3129 1.42268 13.4649 0.687603 12.4471 0.300647C11.4293 -0.0863097 10.3075 -0.100157 9.28046 0.261559C8.25345 0.623276 7.38756 1.33719 6.83628 2.27678C6.285 3.21636 6.08392 4.32093 6.26869 5.39471C6.45345 6.46849 7.01213 7.44213 7.8457 8.14306C8.67927 8.84399 9.73389 9.22695 10.8227 9.22405C11.0769 9.22352 11.3308 9.20231 11.5816 9.16063L12.5667 11.3802C11.7313 12.0418 11.1515 12.9733 10.9264 14.0154C10.7013 15.0575 10.8448 16.1454 11.3325 17.0933L7.62979 20.3852C6.69797 19.7565 5.56904 19.4895 4.4546 19.6343C3.34016 19.779 2.31672 20.3255 1.57612 21.1714C0.835526 22.0173 0.428613 23.1044 0.431658 24.229C0.434702 25.3537 0.847495 26.4386 1.59266 27.2804C2.33783 28.1223 3.36421 28.6632 4.47942 28.8019C5.59463 28.9406 6.7221 28.6675 7.6505 28.0338C8.5789 27.4001 9.24448 26.4493 9.5225 25.3596C9.80052 24.27 9.67188 23.1162 9.16069 22.1147L12.8634 18.8228C13.6651 19.363 14.6166 19.6365 15.5825 19.6045C16.5485 19.5724 17.4797 19.2363 18.2439 18.6441L21.5721 21.2384C21.3216 21.813 21.1922 22.4332 21.1919 23.0601C21.1919 23.9723 21.4622 24.864 21.9686 25.6225C22.475 26.3809 23.1947 26.972 24.0368 27.3211C24.8789 27.6702 25.8056 27.7615 26.6995 27.5836C27.5935 27.4056 28.4147 26.9663 29.0592 26.3213C29.7037 25.6763 30.1426 24.8546 30.3204 23.9599C30.4983 23.0653 30.407 22.1379 30.0582 21.2952C29.7094 20.4525 29.1187 19.7322 28.3608 19.2254C27.6029 18.7186 26.7119 18.4481 25.8004 18.4481ZM25.8004 9.22405C26.2562 9.22405 26.7017 9.35929 27.0806 9.61268C27.4596 9.86607 27.7549 10.2262 27.9293 10.6476C28.1037 11.069 28.1494 11.5326 28.0604 11.9799C27.9715 12.4273 27.7521 12.8382 27.4298 13.1607C27.1076 13.4832 26.697 13.7028 26.25 13.7918C25.803 13.8807 25.3397 13.8351 24.9186 13.6605C24.4976 13.486 24.1377 13.1904 23.8845 12.8112C23.6313 12.432 23.4962 11.9862 23.4962 11.5301C23.4962 10.9185 23.7389 10.3319 24.1711 9.89947C24.6032 9.467 25.1893 9.22405 25.8004 9.22405ZM8.51838 4.61202C8.51838 4.15593 8.65352 3.71008 8.90672 3.33086C9.15991 2.95164 9.51979 2.65607 9.94084 2.48153C10.3619 2.307 10.8252 2.26133 11.2722 2.35031C11.7192 2.43929 12.1298 2.65891 12.452 2.98142C12.7743 3.30392 12.9937 3.71481 13.0827 4.16213C13.1716 4.60946 13.1259 5.07312 12.9515 5.49449C12.7771 5.91586 12.4818 6.27601 12.1028 6.5294C11.7239 6.78279 11.2784 6.91803 10.8227 6.91803C10.2115 6.91803 9.62542 6.67508 9.19328 6.24262C8.76115 5.81015 8.51838 5.22361 8.51838 4.61202ZM5.06196 26.5192C4.60622 26.5192 4.16071 26.3839 3.78178 26.1305C3.40284 25.8771 3.10749 25.517 2.93309 25.0956C2.75868 24.6743 2.71305 24.2106 2.80196 23.7633C2.89087 23.316 3.11033 22.9051 3.43259 22.5826C3.75485 22.2601 4.16543 22.0404 4.61242 21.9514C5.05941 21.8625 5.52272 21.9081 5.94377 22.0827C6.36482 22.2572 6.7247 22.5528 6.9779 22.932C7.23109 23.3112 7.36624 23.7571 7.36624 24.2132C7.36624 24.8247 7.12347 25.4113 6.69133 25.8438C6.2592 26.2762 5.67309 26.5192 5.06196 26.5192ZM13.1269 14.9891C13.1269 14.533 13.2621 14.0872 13.5153 13.7079C13.7685 13.3287 14.1283 13.0331 14.5494 12.8586C14.9704 12.6841 15.4338 12.6384 15.8807 12.7274C16.3277 12.8164 16.7383 13.036 17.0606 13.3585C17.3828 13.681 17.6023 14.0919 17.6912 14.5392C17.7801 14.9865 17.7345 15.4502 17.5601 15.8716C17.3857 16.2929 17.0903 16.6531 16.7114 16.9065C16.3325 17.1599 15.8869 17.2951 15.4312 17.2951C14.8201 17.2951 14.234 17.0522 13.8018 16.6197C13.3697 16.1872 13.1269 15.6007 13.1269 14.9891ZM25.8004 25.3662C25.3447 25.3662 24.8992 25.2309 24.5203 24.9775C24.1413 24.7241 23.846 24.364 23.6716 23.9426C23.4972 23.5213 23.4515 23.0576 23.5404 22.6103C23.6294 22.1629 23.8488 21.7521 24.1711 21.4295C24.4933 21.107 24.9039 20.8874 25.3509 20.7984C25.7979 20.7095 26.2612 20.7551 26.6823 20.9297C27.1033 21.1042 27.4632 21.3998 27.7164 21.779C27.9696 22.1582 28.1047 22.6041 28.1047 23.0601C28.1047 23.6717 27.8619 24.2583 27.4298 24.6907C26.9977 25.1232 26.4116 25.3662 25.8004 25.3662Z" fill="#0068FF"/>
</svg>
