<svg width="22" height="30" viewBox="0 0 22 30" fill="none" xmlns="http://www.w3.org/2000/svg">
<path d="M11.2478 17.1218L11.004 18.1367L10.7602 17.1218H11.2478ZM6.04218 7.39344V5.43043H15.9658V7.39344C15.9658 9.17581 15.0039 10.8243 13.4536 11.6975L13.4535 11.6975L13.4482 11.7005C11.9683 12.5581 10.0269 12.5553 8.54942 11.699L8.54943 11.6989L8.54492 11.6964C7.00228 10.8235 6.04218 9.17484 6.04218 7.39344ZM2.29968 23.2192V23.2191C2.29968 19.9369 4.8628 17.2623 8.15437 17.1277L8.16513 17.1273L8.17585 17.1264C8.23577 17.1214 8.30606 17.1209 8.39241 17.1217L8.39241 17.1218H8.39704H8.90973L10.1292 22.2003C10.2264 22.6055 10.5886 22.8898 11.004 22.8898C11.4204 22.8898 11.7816 22.6038 11.8787 22.2007L11.8788 22.2003L13.0983 17.1218H13.5986C13.6311 17.1223 13.6591 17.1225 13.6847 17.1227C13.7437 17.1232 13.7897 17.1236 13.8475 17.1277L13.855 17.1282L13.8624 17.1285C17.1364 17.2623 19.7003 19.9353 19.7003 23.2191V26.6713C19.7003 27.1949 19.274 27.6212 18.7505 27.6212H3.2487C2.7252 27.6212 2.29894 27.1949 2.29888 26.6715C2.29888 26.6714 2.29888 26.6714 2.29888 26.6713L2.29968 23.2192ZM3.2487 29.4208H18.7505C20.2669 29.4208 21.5 28.1878 21.5 26.6713V23.2191C21.5 19.2595 18.6119 15.9879 14.7987 15.4208V12.9667C16.6369 11.7247 17.7655 9.64224 17.7655 7.39424V5.43043H17.8013C18.2981 5.43043 18.7011 5.02744 18.7011 4.53059V2.29968H19.7003V3.89884C19.7003 4.3957 20.1033 4.79868 20.6002 4.79868C21.097 4.79868 21.5 4.39569 21.5 3.89884V1.39984C21.5 0.902986 21.097 0.5 20.6002 0.5H17.8013H4.20672H1.40784C0.910983 0.5 0.507997 0.902986 0.507997 1.39984C0.507997 1.89669 0.910983 2.29968 1.40784 2.29968H3.30688V4.53059C3.30688 5.02744 3.70986 5.43043 4.20672 5.43043H4.2425V7.39344C4.2425 9.64098 5.36989 11.7239 7.20132 12.9662V15.4223C3.38227 15.9953 0.5 19.2642 0.5 23.2199V26.6721C0.5 28.1877 1.73214 29.4208 3.2487 29.4208ZM12.389 15.3221H9.61895H9.001V13.8437C9.64373 14.0467 10.3186 14.1549 11.004 14.1549C11.6864 14.1549 12.3587 14.0469 12.999 13.8443V15.3221H12.389ZM5.10656 2.29968H16.9014V3.63075H16.8657H5.14234H5.10656V2.29968Z" fill="#0D6EFD" stroke="#0068FF"/>
</svg>
