<svg width="30" height="30" viewBox="0 0 30 30" fill="none" xmlns="http://www.w3.org/2000/svg">
<path d="M30 7.97619V7.02381H0V7.97619C0 9.60452 1.14583 10.9883 2.61905 11.4971V27.5H0V29.6429H30V27.5H27.381V11.4945C28.9155 11.0249 29.9642 9.66167 30 7.97619ZM25.2381 27.5H17.0238V26.9048H15.5952V23.7642H19.2012L18.9631 23.7593C18.9389 22.3926 16.6931 18.8487 16.32 17.9521C16.32 17.9521 16.8143 15.666 16.9064 15.666C17.0227 15.666 17.2145 16.6545 17.2145 16.6545H18.368C18.368 16.6545 18.2737 16.0908 18.1299 15.5496C17.8573 14.5237 17.495 13.645 16.4579 13.645H15.8375L15.6746 12.7381H14.5636L14.4008 13.6451H13.7798C12.7669 13.6451 12.3455 14.5204 12.1077 15.5498C11.9048 16.4286 11.8696 16.6546 11.8696 16.6546H13.0231C13.0231 16.6546 13.2342 15.6661 13.3312 15.6661C13.4475 15.6661 13.8982 17.9086 13.8982 17.9086C13.5202 18.8002 11.0655 22.3732 11.0412 23.7642H14.6429V26.9048H13.2143V27.5H4.7619V11.4993C6.35738 11.0674 7.53452 9.63036 7.53452 7.89833C7.53452 8.66952 8.33869 11.6448 11.3115 11.6448C13.8936 11.6448 15.0261 9.30964 15.0261 7.89833C15.0261 9.21405 15.9082 11.642 18.7718 11.642C21.359 11.642 22.5055 9.14214 22.5055 7.89833C22.5055 9.61571 23.6633 11.0431 25.2381 11.4881V27.5ZM30 6.19048H0L3.80952 2.38095V0H26.3095V2.38095H26.2895L30 6.19048Z" fill="#0D6EFD"/>
</svg>
