<svg width="31" height="19" viewBox="0 0 31 19" fill="none" xmlns="http://www.w3.org/2000/svg">
<path d="M15.0648 4.43458C14.0776 4.43458 13.1126 4.72732 12.2917 5.27577C11.4709 5.82423 10.8312 6.60376 10.4534 7.51581C10.0756 8.42785 9.97677 9.43144 10.1694 10.3997C10.362 11.3679 10.8373 12.2573 11.5354 12.9553C12.2334 13.6533 13.1228 14.1287 14.091 14.3213C15.0592 14.5139 16.0628 14.4151 16.9749 14.0373C17.8869 13.6595 18.6665 13.0197 19.2149 12.1989C19.7634 11.3781 20.0561 10.4131 20.0561 9.4259C20.0561 8.10212 19.5302 6.83256 18.5942 5.89651C17.6581 4.96045 16.3886 4.43458 15.0648 4.43458ZM15.0648 12.4207C14.4725 12.4207 13.8935 12.2451 13.401 11.916C12.9085 11.5869 12.5246 11.1192 12.298 10.572C12.0713 10.0247 12.012 9.42258 12.1275 8.84165C12.2431 8.26072 12.5283 7.72709 12.9471 7.30827C13.366 6.88944 13.8996 6.60421 14.4805 6.48866C15.0615 6.3731 15.6636 6.43241 16.2108 6.65908C16.7581 6.88575 17.2258 7.2696 17.5549 7.76209C17.8839 8.25458 18.0596 8.83359 18.0596 9.4259C18.0596 10.2202 17.744 10.9819 17.1824 11.5435C16.6208 12.1052 15.859 12.4207 15.0648 12.4207ZM29.0405 0.441528H1.08908C0.824328 0.441528 0.570416 0.546702 0.383205 0.733913C0.195994 0.921124 0.0908203 1.17504 0.0908203 1.43979V17.412C0.0908203 17.6768 0.195994 17.9307 0.383205 18.1179C0.570416 18.3051 0.824328 18.4103 1.08908 18.4103H29.0405C29.3052 18.4103 29.5591 18.3051 29.7464 18.1179C29.9336 17.9307 30.0387 17.6768 30.0387 17.412V1.43979C30.0387 1.17504 29.9336 0.921124 29.7464 0.733913C29.5591 0.546702 29.3052 0.441528 29.0405 0.441528ZM23.2568 16.4138H6.87278C6.53761 15.2802 5.92418 14.2486 5.08836 13.4127C4.25253 12.5769 3.22087 11.9635 2.08735 11.6283V7.22348C3.22087 6.88832 4.25253 6.27489 5.08836 5.43907C5.92418 4.60324 6.53761 3.57158 6.87278 2.43806H23.2568C23.5919 3.57158 24.2054 4.60324 25.0412 5.43907C25.877 6.27489 26.9087 6.88832 28.0422 7.22348V11.6283C26.9087 11.9635 25.877 12.5769 25.0412 13.4127C24.2054 14.2486 23.5919 15.2802 23.2568 16.4138ZM28.0422 5.10467C26.8448 4.5898 25.8905 3.63543 25.3756 2.43806H28.0422V5.10467ZM4.75396 2.43806C4.2391 3.63543 3.28472 4.5898 2.08735 5.10467V2.43806H4.75396ZM2.08735 13.7471C3.28472 14.262 4.2391 15.2164 4.75396 16.4138H2.08735V13.7471ZM25.3756 16.4138C25.8905 15.2164 26.8448 14.262 28.0422 13.7471V16.4138H25.3756Z" fill="#0D6EFD"/>
</svg>
