<svg width="30" height="30" viewBox="0 0 30 30" fill="none" xmlns="http://www.w3.org/2000/svg">
<path d="M28.9461 27.26V16.0656H19.6955V14.2389H19.0398V12.5293H18.5012V10H19.1101V8.7822H18.5012V8.24356C18.5012 6.29977 17.1897 4.66042 15.4801 4.35597V2.41218H15.1756V0H14.5433V2.4356H14.2389V4.37939C12.5059 4.68384 11.2178 6.32318 11.2178 8.26698V8.80562H10.6089V10.0234H11.2178V12.5527H10.6792V14.2389H10.0234V16.0656H1.05386V27.2834H0V29.1101H30V27.2834L28.9461 27.26ZM17.5644 10V12.5293H16.9555V10H17.5644ZM16.37 10V12.5293H15.7611V10H16.37ZM15.1522 10V12.5293H14.5433V10H15.1522ZM13.9344 10V12.5293H13.3255V10H13.9344ZM12.1077 10H12.7166V12.5293H12.1077V10ZM4.98829 27.26H3.46604V21.5222H4.98829V27.26ZM4.98829 20.3044H3.46604V17.8689H4.98829V20.3044ZM7.72834 27.26H6.20609V21.5222H7.72834V27.26ZM7.72834 20.3044H6.20609V17.8689H7.72834V20.3044ZM10.1405 27.26H8.61827V21.5222H10.1405V27.26ZM10.1405 20.3044H8.61827V17.8689H10.1405V20.3044ZM12.8806 27.26H11.3583V21.5222H12.8806V27.26ZM12.8806 20.3044H11.3583V17.8689H12.8806V20.3044ZM15.5972 27.26H14.0749V21.5222H15.5972V27.26ZM15.5972 20.3044H14.0749V17.8689H15.5972V20.3044ZM18.3372 27.26H16.815V21.5222H18.3372V27.26ZM18.3372 20.3044H16.815V17.8689H18.3372V20.3044ZM21.0539 27.26H19.5316V21.5222H21.0539V27.26ZM21.0539 20.3044H19.5316V17.8689H21.0539V20.3044ZM23.7939 27.26H22.2717V21.5222H23.7939V27.26ZM23.7939 20.3044H22.2717V17.8689H23.7939V20.3044ZM26.5105 27.26H24.9883V21.5222H26.5105V27.26ZM26.5105 20.3044H24.9883V17.8689H26.5105V20.3044Z" fill="#0D6EFD"/>
</svg>
