<svg width="31" height="21" viewBox="0 0 31 21" fill="none" xmlns="http://www.w3.org/2000/svg">
<path d="M8.83678 12.2727C11.0987 12.2727 12.9246 10.4455 12.9246 8.18182C12.9246 5.91818 11.0987 4.09091 8.83678 4.09091C6.57485 4.09091 4.74895 5.91818 4.74895 8.18182C4.74895 10.4455 6.57485 12.2727 8.83678 12.2727ZM8.83678 6.81818C9.58621 6.81818 10.1994 7.43182 10.1994 8.18182C10.1994 8.93182 9.58621 9.54545 8.83678 9.54545C8.08734 9.54545 7.47417 8.93182 7.47417 8.18182C7.47417 7.43182 8.08734 6.81818 8.83678 6.81818ZM25.1881 2.72727H14.2872V13.6364H3.38635V0H0.661133V20.4545H3.38635V16.3636H27.9133V20.4545H30.6385V8.18182C30.6385 5.16818 28.1994 2.72727 25.1881 2.72727ZM27.9133 13.6364H17.0124V5.45455H25.1881C26.6869 5.45455 27.9133 6.68182 27.9133 8.18182V13.6364Z" fill="#0068FF"/>
</svg>
