<svg width="58" height="57" viewBox="0 0 58 57" fill="none" xmlns="http://www.w3.org/2000/svg">
<rect x="0.820312" y="0.0561523" width="56.2324" height="56.2324" rx="5.62324" fill="#D0E3FF"/>
<path d="M18.1253 24.7436L21.4072 26.1305C21.8 25.346 22.2067 24.5895 22.6274 23.8611C23.0482 23.1326 23.511 22.4042 24.0159 21.6757L21.6597 21.2134L18.1253 24.7436ZM24.1001 28.2318L28.8968 32.9807C30.0749 32.5324 31.3372 31.846 32.6836 30.9214C34.03 29.9969 35.2923 28.9462 36.4704 27.7695C38.4339 25.8083 39.97 23.6302 41.0786 21.2353C42.1871 18.8404 42.6707 16.6337 42.5293 14.6153C40.5097 14.4752 38.2937 14.9588 35.8813 16.0661C33.469 17.1733 31.281 18.707 29.3175 20.6671C28.1394 21.8438 27.0875 23.1046 26.1618 24.4494C25.2362 25.7943 24.5489 27.055 24.1001 28.2318ZM31.5896 25.5001C30.9444 24.8557 30.6219 24.0645 30.6219 23.1264C30.6219 22.1884 30.9444 21.3967 31.5896 20.7511C32.2348 20.1067 33.0342 19.7845 33.9879 19.7845C34.9416 19.7845 35.7411 20.1067 36.3863 20.7511C37.0314 21.3955 37.354 22.1873 37.354 23.1264C37.354 24.0656 37.0314 24.8568 36.3863 25.5001C35.7411 26.1445 34.9416 26.4667 33.9879 26.4667C33.0342 26.4667 32.2348 26.1445 31.5896 25.5001ZM32.389 38.9904L35.9234 35.4602L35.4606 33.1068C34.7313 33.6111 34.002 34.0661 33.2726 34.4718C32.5433 34.8775 31.786 35.277 31.0005 35.6704L32.389 38.9904ZM45.5588 11.5474C46.0918 14.9375 45.7624 18.2369 44.5709 21.4454C43.3793 24.654 41.3243 27.714 38.4059 30.6256L39.2474 34.7878C39.3596 35.3482 39.3316 35.8945 39.1633 36.4268C38.995 36.9592 38.7145 37.4215 38.3217 37.8137L31.253 44.8741L27.7186 36.595L20.5237 29.4085L12.2347 25.8783L19.2614 18.8179C19.6541 18.4257 20.1242 18.1455 20.6718 17.9774C21.2193 17.8093 21.773 17.7813 22.3329 17.8934L26.4984 18.7339C29.4157 15.8201 32.4732 13.7608 35.671 12.5561C38.8687 11.3513 42.1647 11.0151 45.5588 11.5474ZM15.2221 34.7458C16.2039 33.7652 17.4033 33.2682 18.8204 33.2547C20.2375 33.2413 21.4364 33.7243 22.4171 34.7038C23.3988 35.6844 23.883 36.8824 23.8695 38.2978C23.8561 39.7133 23.3579 40.9107 22.375 41.8902C21.6737 42.5907 20.5029 43.193 18.8625 43.6973C17.2221 44.2017 14.9567 44.6499 12.0664 45.0422C12.4591 42.1564 12.9079 39.8937 13.4128 38.2541C13.9177 36.6146 14.5208 35.4451 15.2221 34.7458ZM17.6204 37.0993C17.3399 37.3794 17.0594 37.891 16.7789 38.6341C16.4984 39.3771 16.302 40.1263 16.1898 40.8816C16.9472 40.7695 17.6978 40.5801 18.4417 40.3134C19.1856 40.0467 19.6973 39.7738 19.9767 39.4947C20.3133 39.1585 20.4956 38.7523 20.5237 38.276C20.5517 37.7997 20.3974 37.3934 20.0608 37.0572C19.7242 36.721 19.3175 36.5597 18.8406 36.5731C18.3638 36.5865 17.957 36.7619 17.6204 37.0993Z" fill="#0D6EFD"/>
</svg>
