<svg width="60" height="55" viewBox="0 0 60 55" fill="none" xmlns="http://www.w3.org/2000/svg">
<rect x="0.910156" y="0.0561523" width="59.044" height="54.5455" rx="5.62324" fill="#D0E3FF"/>
<path d="M23.9649 32.9523L28.2526 28.6646L31.0642 31.4762L36.0548 26.5207V28.7349H38.8665V21.7058H31.8374V24.5174H34.0516L31.0642 27.5048L28.2526 24.6932L21.9967 30.9842L23.9649 32.9523ZM20.5909 39.9813C19.8177 39.9813 19.1556 39.7058 18.6045 39.1547C18.0534 38.6037 17.7784 37.942 17.7793 37.1697V17.4884C17.7793 16.7152 18.0548 16.053 18.6059 15.502C19.157 14.9509 19.8187 14.6758 20.5909 14.6768H40.2723C41.0455 14.6768 41.7076 14.9523 42.2587 15.5034C42.8098 16.0545 43.0848 16.7161 43.0839 17.4884V37.1697C43.0839 37.9429 42.8083 38.6051 42.2573 39.1561C41.7062 39.7072 41.0445 39.9823 40.2723 39.9813H20.5909ZM20.5909 37.1697H40.2723V17.4884H20.5909V37.1697Z" fill="#0068FF"/>
</svg>
