<svg width="57" height="57" viewBox="0 0 57 57" fill="none" xmlns="http://www.w3.org/2000/svg">
<rect y="0.0561523" width="56.2324" height="56.2324" rx="5.62324" fill="#D0E3FF"/>
<path d="M28.1158 11.3027C25.9005 11.3027 23.7068 11.7391 21.6601 12.5869C19.6133 13.4346 17.7536 14.6773 16.1871 16.2438C13.0234 19.4074 11.2461 23.6983 11.2461 28.1725C11.2461 32.6466 13.0234 36.9375 16.1871 40.1012C17.7536 41.6677 19.6133 42.9103 21.6601 43.7581C23.7068 44.6058 25.9005 45.0422 28.1158 45.0422C32.5899 45.0422 36.8808 43.2648 40.0445 40.1012C43.2082 36.9375 44.9855 32.6466 44.9855 28.1725C44.9855 25.9571 44.5492 23.7634 43.7014 21.7167C42.8536 19.67 41.611 17.8103 40.0445 16.2438C38.478 14.6773 36.6183 13.4346 34.5716 12.5869C32.5249 11.7391 30.3312 11.3027 28.1158 11.3027ZM28.1158 14.6767C31.6951 14.6767 35.1278 16.0986 37.6588 18.6295C40.1897 21.1605 41.6116 24.5932 41.6116 28.1725C41.6116 32.2212 39.9246 35.7638 37.0568 38.2943C34.695 36.1012 31.4898 34.9203 28.1158 34.9203C24.7419 34.9203 21.7053 36.1012 19.1749 38.2943C16.307 35.7638 14.62 32.2212 14.62 28.1725C14.62 24.5932 16.0419 21.1605 18.5729 18.6295C21.1038 16.0986 24.5365 14.6767 28.1158 14.6767ZM24.7419 18.0506C24.2945 18.0506 23.8654 18.2284 23.549 18.5447C23.2326 18.8611 23.0549 19.2902 23.0549 19.7376C23.0549 20.185 23.2326 20.6141 23.549 20.9305C23.8654 21.2468 24.2945 21.4246 24.7419 21.4246C25.1893 21.4246 25.6184 21.2468 25.9347 20.9305C26.2511 20.6141 26.4288 20.185 26.4288 19.7376C26.4288 19.2902 26.2511 18.8611 25.9347 18.5447C25.6184 18.2284 25.1893 18.0506 24.7419 18.0506ZM31.4898 18.0506C31.0423 18.0506 30.6133 18.2284 30.2969 18.5447C29.9805 18.8611 29.8028 19.2902 29.8028 19.7376C29.8028 20.185 29.9805 20.6141 30.2969 20.9305C30.6133 21.2468 31.0423 21.4246 31.4898 21.4246C31.9372 21.4246 32.3663 21.2468 32.6826 20.9305C32.999 20.6141 33.1767 20.185 33.1767 19.7376C33.1767 19.2902 32.999 18.8611 32.6826 18.5447C32.3663 18.2284 31.9372 18.0506 31.4898 18.0506ZM36.7025 23.0103C36.4832 23.0103 36.2808 23.0609 36.0446 23.1115L30.6463 25.3383L30.1908 25.5239C29.2461 24.7985 27.964 24.5961 26.8506 25.0516C26.4401 25.2169 26.0664 25.4617 25.7508 25.7719C25.4352 26.0821 25.184 26.4516 25.0116 26.8591C24.8392 27.2667 24.749 27.7043 24.7461 28.1467C24.7432 28.5892 24.8278 29.028 24.9949 29.4377C25.1603 29.8481 25.4051 30.2219 25.7153 30.5375C26.0255 30.853 26.395 31.1042 26.8025 31.2767C27.21 31.4491 27.6476 31.5393 28.0901 31.5422C28.5326 31.545 28.9713 31.4605 29.381 31.2934C30.4944 30.8547 31.2873 29.8594 31.4898 28.6448L31.8778 28.4761L37.3098 26.283L37.3436 26.2662C38.2376 25.9119 38.6257 24.9335 38.2883 24.0562C38.1595 23.7428 37.9394 23.4754 37.6566 23.2889C37.3738 23.1023 37.0413 23.0053 36.7025 23.0103ZM19.681 23.1115C19.2335 23.1115 18.8045 23.2893 18.4881 23.6056C18.1717 23.922 17.994 24.3511 17.994 24.7985C17.994 25.2459 18.1717 25.675 18.4881 25.9914C18.8045 26.3078 19.2335 26.4855 19.681 26.4855C20.1284 26.4855 20.5575 26.3078 20.8738 25.9914C21.1902 25.675 21.3679 25.2459 21.3679 24.7985C21.3679 24.3511 21.1902 23.922 20.8738 23.6056C20.5575 23.2893 20.1284 23.1115 19.681 23.1115Z" fill="#0D6EFD"/>
</svg>
