<svg width="34" height="35" viewBox="0 0 34 35" fill="none" xmlns="http://www.w3.org/2000/svg">
<path d="M17.1158 0.535156C14.9005 0.535156 12.7068 0.971505 10.6601 1.81929C8.61332 2.66707 6.75362 3.90969 5.18712 5.47618C2.02343 8.63987 0.246094 12.9308 0.246094 17.4049C0.246094 21.879 2.02343 26.1699 5.18712 29.3336C6.75362 30.9001 8.61332 32.1427 10.6601 32.9905C12.7068 33.8383 14.9005 34.2746 17.1158 34.2746C21.5899 34.2746 25.8808 32.4973 29.0445 29.3336C32.2082 26.1699 33.9855 21.879 33.9855 17.4049C33.9855 15.1895 33.5492 12.9958 32.7014 10.9491C31.8536 8.90239 30.611 7.04268 29.0445 5.47618C27.478 3.90969 25.6183 2.66707 23.5716 1.81929C21.5249 0.971505 19.3312 0.535156 17.1158 0.535156ZM17.1158 3.9091C20.6951 3.9091 24.1278 5.33097 26.6588 7.86192C29.1897 10.3929 30.6116 13.8256 30.6116 17.4049C30.6116 21.4536 28.9246 24.9963 26.0568 27.5267C23.695 25.3337 20.4898 24.1528 17.1158 24.1528C13.7419 24.1528 10.7053 25.3337 8.17486 27.5267C5.30701 24.9963 3.62004 21.4536 3.62004 17.4049C3.62004 13.8256 5.04191 10.3929 7.57286 7.86192C10.1038 5.33097 13.5365 3.9091 17.1158 3.9091ZM13.7419 7.28305C13.2945 7.28305 12.8654 7.46078 12.549 7.77715C12.2326 8.09352 12.0549 8.52261 12.0549 8.97002C12.0549 9.41743 12.2326 9.84652 12.549 10.1629C12.8654 10.4793 13.2945 10.657 13.7419 10.657C14.1893 10.657 14.6184 10.4793 14.9347 10.1629C15.2511 9.84652 15.4288 9.41743 15.4288 8.97002C15.4288 8.52261 15.2511 8.09352 14.9347 7.77715C14.6184 7.46078 14.1893 7.28305 13.7419 7.28305ZM20.4898 7.28305C20.0423 7.28305 19.6133 7.46078 19.2969 7.77715C18.9805 8.09352 18.8028 8.52261 18.8028 8.97002C18.8028 9.41743 18.9805 9.84652 19.2969 10.1629C19.6133 10.4793 20.0423 10.657 20.4898 10.657C20.9372 10.657 21.3663 10.4793 21.6826 10.1629C21.999 9.84652 22.1767 9.41743 22.1767 8.97002C22.1767 8.52261 21.999 8.09352 21.6826 7.77715C21.3663 7.46078 20.9372 7.28305 20.4898 7.28305ZM25.7025 12.2427C25.4832 12.2427 25.2808 12.2934 25.0446 12.344L19.6463 14.5708L19.1908 14.7563C18.2461 14.0309 16.964 13.8285 15.8506 14.284C15.4401 14.4494 15.0664 14.6942 14.7508 15.0044C14.4352 15.3146 14.184 15.684 14.0116 16.0916C13.8392 16.4991 13.749 16.9367 13.7461 17.3792C13.7432 17.8217 13.8278 18.2604 13.9949 18.6701C14.1603 19.0806 14.4051 19.4543 14.7153 19.7699C15.0255 20.0855 15.395 20.3367 15.8025 20.5091C16.21 20.6815 16.6476 20.7717 17.0901 20.7746C17.5326 20.7775 17.9713 20.6929 18.381 20.5258C19.4944 20.0872 20.2873 19.0919 20.4898 17.8772L20.8778 17.7085L26.3098 15.5155L26.3436 15.4986C27.2376 15.1443 27.6257 14.1659 27.2883 13.2887C27.1595 12.9752 26.9394 12.7078 26.6566 12.5213C26.3738 12.3347 26.0413 12.2377 25.7025 12.2427ZM8.68096 12.344C8.23354 12.344 7.80446 12.5217 7.48809 12.8381C7.17172 13.1544 6.99398 13.5835 6.99398 14.0309C6.99398 14.4783 7.17172 14.9074 7.48809 15.2238C7.80446 15.5402 8.23354 15.7179 8.68096 15.7179C9.12837 15.7179 9.55746 15.5402 9.87383 15.2238C10.1902 14.9074 10.3679 14.4783 10.3679 14.0309C10.3679 13.5835 10.1902 13.1544 9.87383 12.8381C9.55746 12.5217 9.12837 12.344 8.68096 12.344Z" fill="#0D6EFD"/>
</svg>
