<svg width="30" height="28" viewBox="0 0 30 28" fill="none" xmlns="http://www.w3.org/2000/svg">
<path d="M24.3568 22.7043H5.62373C4.65632 22.7025 3.72916 22.3169 3.04575 21.6322C2.36234 20.9475 1.97851 20.0196 1.97852 19.0522V3.64522C1.98035 2.67901 2.36499 1.7529 3.04821 1.06969C3.73142 0.386478 4.65753 0.00183865 5.62373 0H24.3568C25.3228 0.00206838 26.2487 0.386809 26.9317 1.07C27.6148 1.75318 27.9993 2.67916 28.0011 3.64522V19.0522C28.0011 20.0194 27.6174 20.9472 26.9342 21.6319C26.251 22.3166 25.324 22.7023 24.3568 22.7043ZM5.62373 2.17391C5.23366 2.17437 4.8597 2.32953 4.58387 2.60536C4.30805 2.88118 4.15289 3.25514 4.15243 3.64522V19.0522C4.15174 19.2459 4.18928 19.4379 4.26289 19.6171C4.3365 19.7963 4.44474 19.9592 4.58141 20.0965C4.71808 20.2338 4.88049 20.3429 5.05935 20.4173C5.23821 20.4918 5.43 20.5302 5.62373 20.5304H24.3568C24.5504 20.5301 24.7421 20.4916 24.9209 20.4171C25.0996 20.3426 25.262 20.2335 25.3985 20.0962C25.5351 19.9589 25.6433 19.796 25.7168 19.6169C25.7904 19.4377 25.8279 19.2458 25.8272 19.0522V3.64522C25.8267 3.25529 25.6717 2.88146 25.3961 2.60566C25.1204 2.32986 24.7467 2.1746 24.3568 2.17391H5.62373Z" fill="#0068FF"/>
<path d="M28.913 27.3272H1.08696C0.798678 27.3272 0.522206 27.2127 0.318362 27.0088C0.114518 26.805 0 26.5285 0 26.2402C0 25.9519 0.114518 25.6755 0.318362 25.4716C0.522206 25.2678 0.798678 25.1533 1.08696 25.1533H28.913C29.2013 25.1533 29.4778 25.2678 29.6816 25.4716C29.8855 25.6755 30 25.9519 30 26.2402C30 26.5285 29.8855 26.805 29.6816 27.0088C29.4778 27.2127 29.2013 27.3272 28.913 27.3272Z" fill="#0068FF"/>
</svg>
