<svg width="32" height="25" viewBox="0 0 32 25" fill="none" xmlns="http://www.w3.org/2000/svg">
<path d="M29.5 13.0667L29.5 13.0667C29.6494 13.3317 29.7936 13.7179 29.9004 14.125C30.0072 14.532 30.0712 14.9393 30.0712 15.2435V19.7246C30.0712 20.1261 29.7442 20.4532 29.3426 20.4532H27.9085C27.5832 20.4532 27.3193 20.7168 27.3193 21.0425C27.3193 21.3679 27.5831 21.6318 27.9085 21.6318H29.3426C30.3943 21.6318 31.2498 20.7766 31.2497 19.7247C31.2497 19.7247 31.2497 19.7247 31.2497 19.7247V15.2436C31.2497 14.4116 30.9353 13.2129 30.527 12.4881L30.527 12.488L27.1423 6.48171L27.1423 6.48169C26.9073 6.06471 26.5188 5.70516 26.0826 5.45026C25.6464 5.19535 25.1425 5.03339 24.6639 5.03339H22.4893C21.4373 5.03339 20.582 5.88871 20.582 6.94062V12.6077C20.582 13.6598 21.4375 14.515 22.4893 14.515H27.102C27.4274 14.515 27.6913 14.2514 27.6913 13.9257C27.6913 13.6002 27.4275 13.3364 27.102 13.3364H22.4893C22.0878 13.3364 21.7607 13.0094 21.7607 12.6078V6.9407C21.7607 6.53915 22.0878 6.21212 22.4893 6.21212H24.6639C24.9113 6.21212 25.2108 6.30525 25.4882 6.46741C25.7657 6.62957 25.9939 6.84474 26.1153 7.06031L26.1153 7.06033L29.5 13.0667Z" fill="#0D6EFD" stroke="#0D6EFD" stroke-width="0.5"/>
<path d="M5.33415 21.6317C5.60927 23.0222 6.83567 24.0748 8.30682 24.0748C9.97917 24.0748 11.3393 22.7147 11.3393 21.0424C11.3393 19.37 9.97917 18.0099 8.30682 18.0099C7.74579 18.0099 7.19726 18.1643 6.72099 18.4572C6.721 18.4572 6.721 18.4572 6.72101 18.4572L5.33415 21.6317ZM5.33415 21.6317H2.69659C1.62302 21.6317 0.75 20.7587 0.75 19.6851V2.69659C0.75 1.62293 1.62302 0.75 2.69659 0.75H15.0641C16.1377 0.75 17.0107 1.62294 17.0107 2.69659V3.65678C17.0107 3.87771 17.0857 4.07671 17.1975 4.2165C17.3096 4.35677 17.4465 4.42472 17.5749 4.42472C18.5652 4.42472 19.3178 5.32881 19.3177 6.37131V19.6851C19.3177 20.7586 18.445 21.6317 17.3713 21.6317H12.7566C12.4311 21.6317 12.1673 21.3678 12.1673 21.0424C12.1673 20.7167 12.4311 20.4531 12.7566 20.4531H17.3713C17.7944 20.4531 18.1392 20.1084 18.1392 19.6851V6.37123C18.1392 6.15032 18.0642 5.95132 17.9523 5.81152C17.8401 5.67122 17.7033 5.60329 17.5749 5.60329C16.5848 5.60329 15.8319 4.6994 15.8319 3.6567V2.69659C15.8319 2.27327 15.4873 1.92865 15.0641 1.92865H2.69667C2.27337 1.92865 1.92873 2.2733 1.92873 2.69659V19.6853C1.92873 20.1086 2.2734 20.4533 2.69667 20.4533V20.7033L5.33415 21.6317ZM6.74048 19.137C6.83852 19.2967 7.04755 19.3465 7.2073 19.2485L5.54719 21.3817C5.7154 22.7561 6.8875 23.8248 8.30682 23.8248C9.8411 23.8248 11.0893 22.5767 11.0893 21.0424C11.0893 19.5081 9.8411 18.2599 8.30682 18.2599C7.79172 18.2599 7.28857 18.4017 6.85194 18.6702C6.69235 18.7683 6.64236 18.9772 6.74048 19.137Z" fill="#0D6EFD" stroke="#0D6EFD" stroke-width="0.5"/>
<path d="M22.9407 19.4615L22.9405 19.4616C22.6633 19.6316 22.3002 19.5455 22.1298 19.2678M22.9407 19.4615L22.3235 18.4573C22.0463 18.6276 21.9595 18.9903 22.1298 19.2678M22.9407 19.4615C23.2307 19.2832 23.5657 19.1888 23.9095 19.1888M22.9407 19.4615L23.9095 19.1888M22.1298 19.2678L22.3429 19.1371L22.1299 19.2679C22.1299 19.2679 22.1299 19.2678 22.1298 19.2678ZM23.9095 19.1888C24.9315 19.1888 25.7634 20.0206 25.7634 21.0427M23.9095 19.1888L25.7634 21.0427M25.7634 21.0427C25.7634 22.0647 24.9316 22.8964 23.9095 22.8964M25.7634 21.0427L23.9095 22.8964M23.9095 22.8964C22.8874 22.8964 22.0556 22.0647 22.0556 21.0427M23.9095 22.8964L22.0556 21.0427M22.0556 21.0427C22.0556 20.717 21.7917 20.4534 21.4663 20.4534M22.0556 21.0427L21.4663 20.4534M21.4663 20.4534H19.9506M21.4663 20.4534H19.9506M19.9506 20.4534C19.625 20.4534 19.3613 20.7171 19.3613 21.0427M19.9506 20.4534L19.3613 21.0427M19.3613 21.0427C19.3613 21.3681 19.6249 21.632 19.9506 21.632M19.3613 21.0427L19.9506 21.632M19.9506 21.632H20.9368M19.9506 21.632H20.9368M20.9368 21.632C21.212 23.0225 22.4385 24.0751 23.9094 24.0751C25.5817 24.0751 26.9418 22.7151 26.9418 21.0427L20.9368 21.632ZM23.9095 18.01C23.3482 18.01 22.7999 18.1644 22.3235 18.4572L26.9418 21.0427C26.9419 19.3701 25.5816 18.01 23.9095 18.01Z" fill="#0D6EFD" stroke="#0D6EFD" stroke-width="0.5"/>
</svg>
