<svg width="33" height="32" viewBox="0 0 33 32" fill="none" xmlns="http://www.w3.org/2000/svg">
<path d="M8.6899 22.75L1.19556 18.25L8.6899 13.75L16.1842 18.25V26.5L8.6899 31V22.75Z" stroke="#0068FF" stroke-width="2" stroke-linecap="round" stroke-linejoin="round"/>
<path d="M1.19556 18.25V26.5L8.6899 31M8.6899 22.8175L16.1842 18.2725M23.6786 22.75L16.1842 18.25M23.6786 22.75V31M23.6786 22.75L31.1729 18.25M16.1842 18.25L23.6786 13.75M16.1842 18.25V10M23.6786 13.75L31.1729 18.25M23.6786 13.75V5.5M31.1729 18.25V26.5L23.6786 31M23.6786 31L16.1842 26.5M16.1842 10L8.6899 5.5L16.1842 1L23.6786 5.5M16.1842 10L23.6786 5.5M8.6899 5.545V13.7275" stroke="#0068FF" stroke-width="2" stroke-linecap="round" stroke-linejoin="round"/>
</svg>
