<svg width="30" height="30" viewBox="0 0 30 30" fill="none" xmlns="http://www.w3.org/2000/svg">
<path fill-rule="evenodd" clip-rule="evenodd" d="M14.9494 16.6667H15.016C19.615 16.6667 23.3431 12.9358 23.3431 8.33333C23.3431 3.73083 19.615 0 15.016 0H14.9494C10.3812 0.0358333 6.68897 3.75333 6.68897 8.33333C6.68897 12.9133 10.3812 16.6308 14.9494 16.6667ZM21.626 9.16667H19.9606C19.9156 9.9275 19.8091 10.6583 19.6492 11.3458H20.9599C21.3061 10.6634 21.5315 9.92612 21.626 9.16667ZM19.7608 13.0125H19.1237C19.0013 13.315 18.8656 13.6025 18.7207 13.875C19.0959 13.6234 19.4446 13.3344 19.7616 13.0125H19.7608ZM17.9313 11.3458C18.1128 10.6817 18.2394 9.94917 18.2919 9.16667H15.8487V11.3458H17.9313ZM15.8487 13.0125H17.2926C17.2285 13.1358 17.1627 13.2542 17.0944 13.3683C16.6781 14.0608 16.2476 14.4892 15.8487 14.7317V13.0125ZM14.1833 11.3458V9.16667H11.6869C11.7393 9.94917 11.8659 10.6817 12.0474 11.3458H14.1833ZM12.6861 13.0125H14.1833V14.7625C13.7703 14.5267 13.319 14.0925 12.8843 13.3683C12.8146 13.2518 12.7485 13.1331 12.6861 13.0125ZM10.3296 11.3458C10.1647 10.6295 10.0605 9.90053 10.0181 9.16667H8.40601C8.5026 9.94167 8.73243 10.6767 9.07217 11.3458H10.3296ZM10.2713 13.0125H10.8542C10.9691 13.2942 11.094 13.5625 11.228 13.8175C10.8845 13.5796 10.5647 13.3101 10.2713 13.0125ZM19.9606 7.5C19.9183 6.76613 19.8141 6.03715 19.6492 5.32083H20.9599C21.3063 6.00314 21.5317 6.74049 21.626 7.5H19.9606ZM19.7608 3.65417H19.1237C19.0013 3.35167 18.8656 3.06417 18.7207 2.79167C19.0963 3.04417 19.4452 3.33333 19.7616 3.65417H19.7608ZM15.8487 3.65417H17.2926C17.2303 3.53354 17.1642 3.41487 17.0944 3.29833C16.6781 2.605 16.2476 2.1775 15.8487 1.935V3.65417ZM17.9313 5.32083H15.8487V7.5H18.2919C18.2441 6.76345 18.1234 6.03347 17.9313 5.32083ZM14.1833 1.90417V3.65417H12.6861C12.7502 3.53083 12.8168 3.4125 12.8843 3.29833C13.3181 2.57417 13.7703 2.14083 14.1833 1.90417ZM14.1833 5.32083H12.0474C11.8659 5.985 11.7393 6.7175 11.6869 7.5H14.1833V5.32083ZM11.2272 2.84917C11.094 3.10417 10.9691 3.3725 10.855 3.65417H10.2713C10.5635 3.35667 10.8833 3.0875 11.2272 2.84917ZM10.3296 5.32083H9.07217C8.72594 6.00324 8.50055 6.74054 8.40601 7.5H10.0181C10.0631 6.73833 10.1697 6.00833 10.3296 5.32083ZM2.27397 9.16667C1.40962 9.14667 0.541945 9.6775 0.261324 10.5042C0.191377 10.7108 0.153072 10.9808 0.125593 11.2267C0.0964485 11.495 0.0739653 11.8175 0.0564785 12.1683C0.0203848 12.9717 0.00178338 13.7758 0.000687373 14.58C-0.00597426 16.2617 0.0364938 18.0117 0.0972812 18.5542C0.203867 19.5042 0.750121 20.3892 1.22476 21.1592L1.27806 21.245C1.42211 21.4783 1.56451 21.7108 1.7044 21.95C2.33226 23.0258 3.01508 23.7508 3.63378 24.4083L3.64793 24.4225C3.996 24.7917 4.31826 25.135 4.6222 25.5175C4.32735 25.8272 4.16329 26.2389 4.16421 26.6667V28.3333C4.16421 28.7754 4.33967 29.1993 4.652 29.5118C4.96432 29.8244 5.38792 30 5.82962 30H12.4913C12.9329 30 13.3566 29.8244 13.6689 29.5118C13.9812 29.1993 14.1567 28.7754 14.1567 28.3333V26.6667C14.1566 26.2448 13.9968 25.8387 13.7094 25.5302C13.4219 25.2217 13.0283 25.0337 12.6078 25.0042C12.4954 24.0575 12.3497 22.7792 12.3364 22.415C12.3247 22.1017 12.2198 21.7958 12.1215 21.5633C12.0184 21.3237 11.8999 21.091 11.7668 20.8667C11.6299 20.6336 11.4832 20.4065 11.3271 20.1858L11.2947 20.1408L11.2863 20.1283L11.283 20.1242L11.2813 20.1217L11.273 20.11L8.57171 16.7017L8.54673 16.6767V16.675L8.5434 16.6717L8.52342 16.65C8.39923 16.5125 8.27981 16.3707 8.16535 16.225C7.91054 15.9065 7.68847 15.5631 7.50252 15.2C7.31266 14.81 6.95294 14.4358 6.40085 14.4083C5.93038 14.3833 5.56149 14.6333 5.34665 14.8258C5.22833 14.9326 5.12042 15.0503 5.02439 15.1775L4.98692 14.6758L4.98276 14.6208C4.90115 13.5225 4.80206 12.1933 4.4798 11.1292C4.10176 9.88417 3.26156 9.19083 2.27314 9.1675L2.27397 9.16667ZM10.9299 25C10.8217 24.0833 10.6868 22.8858 10.6718 22.4758C10.6688 22.4512 10.6635 22.427 10.656 22.4033C10.637 22.3372 10.6139 22.2724 10.5869 22.2092C10.5118 22.0372 10.4258 21.8702 10.3296 21.7092C10.2173 21.518 10.097 21.3318 9.96899 21.1508L9.94734 21.12L7.30933 17.7917L7.29435 17.775C7.14207 17.6063 6.9957 17.4323 6.85551 17.2533C6.63111 16.9687 6.42502 16.67 6.23848 16.3592L6.23265 16.3683C6.1577 16.5075 6.11607 16.635 6.10358 16.7183C6.05778 17.0133 6.08109 17.2167 6.10441 17.3267C6.11144 17.3618 6.12118 17.3964 6.13356 17.43V17.4325L7.65907 20.4642L6.24264 21.33L6.22182 21.3017L6.16437 21.2225C5.86709 20.8122 5.57286 20.3997 5.2817 19.985C4.77625 19.265 4.1717 18.3817 3.8736 17.8517C3.65043 17.4558 3.54718 16.9317 3.48139 16.4575C3.41353 15.9125 3.36216 15.3656 3.32734 14.8175L3.32568 14.7992C3.23907 13.6342 3.14914 12.4825 2.88601 11.6133C2.7711 11.2342 2.62287 11.0433 2.51629 10.9508C2.43969 10.8791 2.33967 10.8377 2.23483 10.8342C2.0075 10.8283 1.85679 10.9858 1.83763 11.0425C1.83597 11.0475 1.82847 11.0758 1.81765 11.1375C1.80262 11.2268 1.7904 11.3166 1.78101 11.4067C1.75686 11.63 1.73604 11.9167 1.71939 12.2517C1.68501 13.0295 1.66752 13.808 1.66693 14.5867C1.65943 16.2858 1.70523 17.9383 1.75353 18.3683C1.81348 18.9058 2.14823 19.48 2.69615 20.37L2.69865 20.3742C2.84021 20.6042 2.99259 20.8517 3.14331 21.11C3.67042 22.0133 4.23832 22.6192 4.86035 23.2792L4.87451 23.2942C5.33749 23.7858 5.84044 24.3192 6.31508 25H10.9299ZM6.49578 16.0383C6.49578 16.0383 6.49245 16.0392 6.48662 16.0442C6.4899 16.0426 6.49298 16.0406 6.49578 16.0383ZM12.4913 28.3333V26.6667H5.82962V28.3333H12.4913ZM29.7174 10.5042C29.436 9.6775 28.5691 9.14667 27.7048 9.1675C26.7172 9.19083 25.877 9.88417 25.4989 11.1292C25.1767 12.1933 25.0776 13.5225 24.996 14.6208L24.9918 14.6758L24.9543 15.1775C24.8544 15.0467 24.7462 14.9275 24.6321 14.8258C24.4172 14.6342 24.0492 14.3842 23.5779 14.4075C23.0258 14.4358 22.6661 14.81 22.4762 15.1992C22.2899 15.5623 22.0676 15.9057 21.8125 16.2242C21.6982 16.3702 21.5787 16.5122 21.4545 16.65L21.4353 16.6717L21.432 16.6758L21.407 16.7017L18.7066 20.11L18.6974 20.1217L18.6957 20.1242L18.6932 20.1283L18.6841 20.1408C18.5157 20.3752 18.3582 20.6171 18.2119 20.8658C18.0785 21.0904 17.9598 21.3234 17.8564 21.5633C17.7589 21.7958 17.654 22.1017 17.6424 22.415C17.629 22.7792 17.4841 24.0575 17.3709 25.0042C16.9504 25.0337 16.5568 25.2217 16.2694 25.5302C15.9819 25.8387 15.8221 26.2448 15.8221 26.6667V28.3333C15.8221 28.7754 15.9975 29.1993 16.3099 29.5118C16.6222 29.8244 17.0458 30 17.4875 30H24.1491C24.5908 30 25.0144 29.8244 25.3267 29.5118C25.6391 29.1993 25.8145 28.7754 25.8145 28.3333V26.6667C25.8148 26.2386 25.6505 25.8268 25.3557 25.5167C25.6605 25.135 25.9819 24.7917 26.33 24.4225L26.3441 24.4075C26.9628 23.7508 27.6456 23.0258 28.2735 21.95C28.4134 21.7108 28.5566 21.4792 28.6998 21.245L28.7531 21.1592C29.2278 20.3892 29.774 19.5042 29.8806 18.5542C29.9414 18.0117 29.9839 16.2617 29.9772 14.58C29.9764 13.7758 29.9581 12.9717 29.9223 12.1683C29.9081 11.8539 29.885 11.5398 29.8531 11.2267C29.8265 10.9808 29.7882 10.71 29.7174 10.5042ZM23.6645 25C24.1391 24.3192 24.6412 23.7858 25.1051 23.2942L25.1184 23.2792C25.7404 22.6192 26.3092 22.0125 26.8354 21.11C26.9853 20.8517 27.1377 20.605 27.2801 20.3742L27.2826 20.37C27.8313 19.48 28.1652 18.9058 28.2252 18.3683C28.2735 17.9383 28.3185 16.2858 28.3118 14.5867C28.3085 13.7483 28.2927 12.92 28.2593 12.2517C28.2427 11.9167 28.2219 11.63 28.1977 11.4067C28.1883 11.3166 28.1761 11.2268 28.1611 11.1375C28.156 11.1055 28.1493 11.0738 28.1411 11.0425C28.1219 10.9858 27.9712 10.8283 27.7447 10.8342C27.6396 10.8375 27.5393 10.8789 27.4624 10.9508C27.3559 11.0425 27.2076 11.2342 27.0927 11.6133C26.8296 12.4817 26.7397 13.6342 26.6531 14.7992L26.6514 14.8175C26.6098 15.3875 26.5665 15.9625 26.4973 16.4575C26.4324 16.9317 26.3283 17.4558 26.106 17.8525C25.807 18.3817 25.2025 19.265 24.697 19.9858C24.4058 20.4002 24.1116 20.8124 23.8144 21.2225L23.7561 21.3017L23.7361 21.33L22.3197 20.4633L23.8443 17.4325L23.8452 17.43C23.8575 17.3964 23.8673 17.3618 23.8743 17.3267C23.8976 17.2167 23.921 17.0133 23.8752 16.7183C23.8514 16.5954 23.8078 16.4772 23.7461 16.3683L23.7403 16.3592C23.5354 16.705 23.3098 17.015 23.1241 17.2525C22.9837 17.4318 22.837 17.606 22.6844 17.775L22.6686 17.7917L20.0314 21.12L20.0097 21.1508C19.8818 21.3318 19.7615 21.5181 19.6492 21.7092C19.5493 21.8792 19.4577 22.0533 19.3919 22.2092C19.3594 22.2867 19.3369 22.3508 19.3228 22.4025C19.3153 22.4264 19.31 22.451 19.3069 22.4758C19.292 22.8858 19.1571 24.0842 19.0488 25H23.6645ZM23.483 16.0383C23.483 16.0383 23.4863 16.0392 23.4921 16.0442C23.4888 16.0426 23.4858 16.0406 23.483 16.0383ZM17.4875 28.3333V26.6667H24.1491V28.3333H17.4875Z" fill="#0068FF"/>
</svg>
