<svg width="27" height="30" viewBox="0 0 27 30" fill="none" xmlns="http://www.w3.org/2000/svg">
<path d="M13.3233 0C17.0038 0 19.9849 2.98333 19.9849 6.66667C19.9849 10.35 17.0038 13.3333 13.3233 13.3333C9.64272 13.3333 6.66163 10.35 6.66163 6.66667C6.66163 2.98333 9.64272 0 13.3233 0ZM19.9849 17.5667C19.9849 19.3333 19.5186 23.45 16.3377 28.05L14.9887 20L16.5542 16.8667C15.5216 16.75 14.4391 16.6667 13.3233 16.6667C12.2074 16.6667 11.1249 16.75 10.0924 16.8667L11.6579 20L10.3089 28.05C7.12795 23.45 6.66163 19.3333 6.66163 17.5667C2.68131 18.7333 0 20.8333 0 23.3333V30H26.6465V23.3333C26.6465 20.8333 23.9819 18.7333 19.9849 17.5667Z" fill="#0068FF"/>
</svg>
