<svg width="27" height="30" viewBox="0 0 27 30" fill="none" xmlns="http://www.w3.org/2000/svg">
<path d="M2.86137 29.2521H24.1356C24.4883 29.2521 24.8265 29.112 25.0758 28.8626C25.3252 28.6133 25.4653 28.2751 25.4653 27.9224V11.637C25.6048 11.5108 25.7379 11.3777 25.8641 11.2381C26.3671 10.5977 26.7164 9.85032 26.8849 9.05361C27.0534 8.2569 27.0367 7.43213 26.8361 6.64288L25.4254 1.00787C25.3536 0.720091 25.1877 0.464573 24.954 0.28195C24.7203 0.099326 24.4322 8.19364e-05 24.1356 0H2.86137C2.56478 8.19364e-05 2.27673 0.099326 2.04303 0.28195C1.80933 0.464573 1.6434 0.720091 1.57162 1.00787L0.164861 6.64022C-0.0362829 7.42917 -0.053611 8.25376 0.114212 9.05046C0.282035 9.84716 0.63053 10.5947 1.13284 11.2355C1.25906 11.375 1.39219 11.5081 1.53173 11.6344V27.9224C1.53173 28.2751 1.67182 28.6133 1.92117 28.8626C2.17053 29.112 2.50873 29.2521 2.86137 29.2521ZM14.8281 26.5928H12.1689V19.9446H14.8281V26.5928ZM23.0972 2.65928L24.254 7.2851C24.3534 7.6829 24.3608 8.09812 24.2757 8.49923C24.1906 8.90033 24.0152 9.27676 23.7628 9.59991C23.5104 9.92306 23.1877 10.1844 22.8191 10.3642C22.4506 10.5439 22.0459 10.6372 21.6359 10.6371C20.9608 10.6328 20.3115 10.3771 19.8149 9.91976C19.3182 9.46245 19.0099 8.83645 18.95 8.16399L18.49 2.65928H23.0972ZM11.1756 2.65928H15.8214L16.2415 7.71191C16.273 8.08406 16.2269 8.45869 16.1061 8.81208C15.9852 9.16546 15.7924 9.48992 15.5396 9.76489C15.2869 10.0399 14.9798 10.2594 14.6379 10.4095C14.2959 10.5597 13.9265 10.6372 13.553 10.6371H13.444C13.0705 10.6372 12.7011 10.5597 12.3591 10.4095C12.0172 10.2594 11.7101 10.0399 11.4574 9.76489C11.2046 9.48992 11.0118 9.16546 10.8909 8.81208C10.7701 8.45869 10.724 8.08406 10.7554 7.71191L11.1756 2.65928ZM9.5016 11.5679C10.004 12.1123 10.6136 12.5469 11.292 12.8444C11.9705 13.1419 12.7032 13.2958 13.444 13.2964H13.553C14.2938 13.2958 15.0265 13.1419 15.705 12.8444C16.3834 12.5469 16.993 12.1123 17.4954 11.5679C17.5366 11.5227 17.5645 11.4668 17.6044 11.4216C18.2272 12.1625 19.0423 12.7171 19.9601 13.0245C20.8779 13.3318 21.8626 13.3799 22.806 13.1634V26.5928H17.4874V18.615C17.4874 18.2623 17.3473 17.9241 17.098 17.6748C16.8486 17.4254 16.5104 17.2853 16.1578 17.2853H10.8392C10.4866 17.2853 10.1484 17.4254 9.89902 17.6748C9.64966 17.9241 9.50957 18.2623 9.50957 18.615V26.5928H4.19101V13.1634C5.13447 13.3797 6.11933 13.3314 7.0371 13.0239C7.95487 12.7163 8.76995 12.1614 9.39256 11.4203C9.43245 11.4655 9.46038 11.5213 9.5016 11.5679ZM2.74303 7.2851L3.89982 2.65928H8.50702L8.04697 8.16399C7.98711 8.83645 7.67875 9.46245 7.18211 9.91976C6.68547 10.3771 6.0362 10.6328 5.3611 10.6371C4.95106 10.6372 4.5464 10.5439 4.17785 10.3642C3.8093 10.1844 3.48657 9.92306 3.23418 9.59991C2.98178 9.27676 2.80637 8.90033 2.72127 8.49923C2.63616 8.09812 2.64361 7.6829 2.74303 7.2851Z" fill="#0D6EFD"/>
</svg>
