<svg width="30" height="29" viewBox="0 0 30 29" fill="none" xmlns="http://www.w3.org/2000/svg">
<path d="M25.388 18.4481C24.3688 18.4476 23.3785 18.7863 22.5732 19.4109L19.2424 16.8166C19.4939 16.2402 19.6234 15.618 19.6229 14.9891C19.6229 14.8824 19.6229 14.7758 19.6114 14.6706L21.5182 14.035C22.1214 14.9654 23.0397 15.6473 24.1048 15.9558C25.1698 16.2643 26.3104 16.1788 27.3175 15.7149C28.3247 15.2509 29.131 14.4397 29.5887 13.4297C30.0464 12.4198 30.125 11.2787 29.8099 10.2156C29.4949 9.1524 28.8074 8.23833 27.8733 7.64079C26.9393 7.04324 25.8212 6.80223 24.7239 6.96189C23.6266 7.12156 22.6235 7.67121 21.8985 8.51017C21.1734 9.34912 20.7749 10.4212 20.7759 11.5301C20.7759 11.6367 20.7759 11.7434 20.7875 11.8486L18.8807 12.4842C18.4627 11.838 17.8896 11.3066 17.2137 10.9386C16.5378 10.5706 15.7805 10.3775 15.0109 10.3771C14.7564 10.3776 14.5024 10.3988 14.2513 10.4405L13.2655 8.21517C14.1168 7.53502 14.6997 6.57547 14.911 5.50658C15.1224 4.43769 14.9484 3.32849 14.4201 2.37558C13.8917 1.42268 13.0431 0.687603 12.0245 0.300647C11.006 -0.0863096 9.8833 -0.100157 8.8555 0.261559C7.82771 0.623275 6.96118 1.33719 6.40948 2.27678C5.85778 3.21636 5.65655 4.32093 5.84145 5.39471C6.02636 6.46849 6.58546 7.44213 7.41966 8.14306C8.25386 8.84399 9.30928 9.22695 10.3989 9.22405C10.6533 9.22352 10.9074 9.20231 11.1584 9.16063L12.1442 11.3802C11.3082 12.0418 10.728 12.9733 10.5027 14.0154C10.2774 15.0575 10.4211 16.1454 10.9091 17.0933L7.20359 20.3852C6.27107 19.7565 5.14128 19.4895 4.026 19.6343C2.91071 19.779 1.8865 20.3255 1.14535 21.1714C0.40419 22.0173 -0.00302997 23.1044 1.69755e-05 24.229C0.00306392 25.3537 0.416169 26.4386 1.1619 27.2804C1.90763 28.1223 2.93478 28.6632 4.05083 28.8019C5.16688 28.9406 6.29521 28.6675 7.22431 28.0338C8.15341 27.4001 8.8195 26.4493 9.09773 25.3596C9.37595 24.27 9.24722 23.1162 8.73565 22.1147L12.4411 18.8228C13.2434 19.363 14.1956 19.6365 15.1623 19.6045C16.129 19.5724 17.061 19.2363 17.8257 18.6441L21.1564 21.2384C20.9058 21.813 20.7762 22.4332 20.7759 23.0601C20.7759 23.9723 21.0464 24.864 21.5532 25.6225C22.06 26.3809 22.7803 26.972 23.623 27.3211C24.4658 27.6702 25.3931 27.7615 26.2877 27.5836C27.1824 27.4056 28.0042 26.9663 28.6492 26.3213C29.2942 25.6763 29.7334 24.8546 29.9114 23.9599C30.0893 23.0653 29.998 22.1379 29.6489 21.2952C29.2999 20.4525 28.7087 19.7322 27.9503 19.2254C27.1918 18.7186 26.3001 18.4481 25.388 18.4481ZM25.388 9.22405C25.8441 9.22405 26.2899 9.35929 26.6691 9.61268C27.0483 9.86607 27.3439 10.2262 27.5184 10.6476C27.693 11.069 27.7387 11.5326 27.6497 11.9799C27.5607 12.4273 27.3411 12.8382 27.0186 13.1607C26.6961 13.4832 26.2852 13.7028 25.8378 13.7918C25.3905 13.8807 24.9269 13.8351 24.5055 13.6605C24.0841 13.486 23.724 13.1904 23.4706 12.8112C23.2172 12.432 23.0819 11.9862 23.0819 11.5301C23.0819 10.9185 23.3249 10.3319 23.7574 9.89946C24.1898 9.467 24.7764 9.22405 25.388 9.22405ZM8.09284 4.61202C8.09284 4.15593 8.22809 3.71008 8.48148 3.33086C8.73487 2.95164 9.09502 2.65607 9.51639 2.48153C9.93775 2.307 10.4014 2.26133 10.8487 2.35031C11.2961 2.43929 11.707 2.65891 12.0295 2.98142C12.352 3.30392 12.5716 3.71481 12.6606 4.16213C12.7495 4.60946 12.7039 5.07312 12.5293 5.49449C12.3548 5.91586 12.0592 6.27601 11.68 6.5294C11.3008 6.78279 10.8549 6.91803 10.3989 6.91803C9.78727 6.91803 9.20072 6.67508 8.76826 6.24262C8.3358 5.81015 8.09284 5.22361 8.09284 4.61202ZM4.63382 26.5192C4.17773 26.5192 3.73189 26.3839 3.35267 26.1305C2.97344 25.8771 2.67787 25.517 2.50334 25.0956C2.3288 24.6743 2.28313 24.2106 2.37211 23.7633C2.46109 23.3159 2.68072 22.9051 3.00322 22.5826C3.32572 22.2601 3.73661 22.0404 4.18394 21.9514C4.63126 21.8625 5.09492 21.9081 5.51629 22.0827C5.93766 22.2572 6.29781 22.5528 6.5512 22.932C6.80459 23.3112 6.93984 23.7571 6.93984 24.2132C6.93984 24.8247 6.69688 25.4113 6.26442 25.8438C5.83196 26.2762 5.24541 26.5192 4.63382 26.5192ZM12.7049 14.9891C12.7049 14.533 12.8401 14.0872 13.0935 13.7079C13.3469 13.3287 13.707 13.0331 14.1284 12.8586C14.5498 12.6841 15.0134 12.6384 15.4608 12.7274C15.9081 12.8164 16.319 13.036 16.6415 13.3585C16.964 13.681 17.1836 14.0919 17.2726 14.5392C17.3616 14.9865 17.3159 15.4502 17.1414 15.8716C16.9668 16.2929 16.6713 16.6531 16.292 16.9065C15.9128 17.1599 15.467 17.2951 15.0109 17.2951C14.3993 17.2951 13.8128 17.0521 13.3803 16.6197C12.9478 16.1872 12.7049 15.6007 12.7049 14.9891ZM25.388 25.3662C24.9319 25.3662 24.486 25.2309 24.1068 24.9775C23.7276 24.7241 23.432 24.364 23.2575 23.9426C23.0829 23.5212 23.0373 23.0576 23.1263 22.6103C23.2152 22.1629 23.4349 21.752 23.7574 21.4295C24.0799 21.107 24.4908 20.8874 24.9381 20.7984C25.3854 20.7095 25.8491 20.7551 26.2704 20.9297C26.6918 21.1042 27.052 21.3998 27.3053 21.779C27.5587 22.1582 27.694 22.6041 27.694 23.0601C27.694 23.6717 27.451 24.2583 27.0186 24.6907C26.5861 25.1232 25.9996 25.3662 25.388 25.3662Z" fill="#0068FF"/>
</svg>
