<svg width="31" height="24" viewBox="0 0 31 24" fill="none" xmlns="http://www.w3.org/2000/svg">
<path d="M8.15547 24C6.08885 24 4.32291 23.2125 2.85766 21.6375C1.3924 20.0625 0.660225 18.1375 0.661134 15.8625C0.661134 13.9125 1.19482 12.175 2.2622 10.65C3.32957 9.125 4.72624 8.15 6.45221 7.725C7.01997 5.425 8.15547 3.5625 9.85873 2.1375C11.562 0.7125 13.4923 0 15.6498 0C18.3069 0 20.5611 1.019 22.4124 3.057C24.2638 5.095 25.189 7.576 25.1881 10.5C26.7551 10.7 28.0554 11.444 29.0892 12.732C30.123 14.02 30.6394 15.526 30.6385 17.25C30.6385 19.125 30.0421 20.719 28.8494 22.032C27.6566 23.345 26.2091 24.001 24.5068 24H8.15547ZM8.15547 21H24.5068C25.4606 21 26.2668 20.6375 26.9254 19.9125C27.584 19.1875 27.9133 18.3 27.9133 17.25C27.9133 16.2 27.584 15.3125 26.9254 14.5875C26.2668 13.8625 25.4606 13.5 24.5068 13.5H22.4628V10.5C22.4628 8.425 21.7983 6.656 20.4694 5.193C19.1404 3.73 17.5338 2.999 15.6498 3C13.7649 3 12.1579 3.7315 10.8289 5.1945C9.49991 6.6575 8.83587 8.426 8.83678 10.5H8.15547C6.83829 10.5 5.71413 11.0125 4.78302 12.0375C3.85191 13.0625 3.38635 14.3 3.38635 15.75C3.38635 17.2 3.85191 18.4375 4.78302 19.4625C5.71413 20.4875 6.83829 21 8.15547 21Z" fill="#0068FF"/>
</svg>
